<svg xmlns="http://www.w3.org/2000/svg" viewBox="0 0 64 64" role="img" aria-label="Rogersense sensor icon">
  <defs>
    <linearGradient id="bg" x1="8" y1="8" x2="56" y2="56" gradientUnits="userSpaceOnUse">
      <stop stop-color="#0f2231"/>
      <stop offset="1" stop-color="#102f3b"/>
    </linearGradient>
    <linearGradient id="beam" x1="18" y1="33" x2="56" y2="20" gradientUnits="userSpaceOnUse">
      <stop stop-color="#2dd4bf"/>
      <stop offset="1" stop-color="#7dd3fc"/>
    </linearGradient>
  </defs>
  <rect width="64" height="64" rx="14" fill="url(#bg)"/>
  <path d="M30 14c10 0 18 8 18 18s-8 18-18 18-18-8-18-18 8-18 18-18Z" fill="#173747"/>
  <path d="M30 20c6.63 0 12 5.37 12 12S36.63 44 30 44s-12-5.37-12-12 5.37-12 12-12Z" fill="#071923" stroke="#2dd4bf" stroke-width="3"/>
  <circle cx="30" cy="32" r="5.2" fill="#2dd4bf"/>
  <circle cx="30" cy="32" r="2.1" fill="#e6fffb"/>
  <path d="M43.5 22.5c3.1 2.2 5.1 5.4 5.8 9.1M48.8 14.8c5.1 4.2 8.2 10.1 8.8 16.6M43.5 41.5c3.1-2.2 5.1-5.4 5.8-9.1M48.8 49.2c5.1-4.2 8.2-10.1 8.8-16.6" fill="none" stroke="url(#beam)" stroke-linecap="round" stroke-width="3"/>
  <circle cx="53" cy="32" r="2.5" fill="#7dd3fc"/>
  <circle cx="55.5" cy="20.5" r="1.8" fill="#2dd4bf"/>
  <circle cx="55.5" cy="43.5" r="1.8" fill="#2dd4bf"/>
</svg>
